<svg width="132" height="40" viewBox="0 0 132 40" fill="none" xmlns="http://www.w3.org/2000/svg">
<g clip-path="url(#clip0_482_21635)">
<path d="M38.715 0H0.879773C0.646439 0 0.422651 0.0935732 0.257727 0.26036C0.0926252 0.426968 0 0.653038 0 0.888932V39.1104C0 39.3461 0.0926252 39.5721 0.257727 39.7387C0.422651 39.9055 0.646439 39.9991 0.879773 39.9991H38.715C38.9486 39.9991 39.1723 39.9055 39.3373 39.7387C39.5024 39.5721 39.595 39.3461 39.595 39.1104V0.888932C39.595 0.653038 39.5024 0.426968 39.3373 0.26036C39.1723 0.0935732 38.9486 0 38.715 0ZM26.3966 25.7773C26.3966 26.013 26.304 26.239 26.1389 26.4058C25.9739 26.5724 25.7502 26.6662 25.5168 26.6662H14.0782C13.8448 26.6662 13.621 26.5724 13.4559 26.4058C13.291 26.239 13.1984 26.013 13.1984 25.7773V14.2218C13.1984 13.9861 13.291 13.7601 13.4559 13.5934C13.621 13.4267 13.8448 13.3331 14.0782 13.3331H25.5168C25.7502 13.3331 25.9739 13.4267 26.1389 13.5934C26.304 13.7601 26.3966 13.9861 26.3966 14.2218V25.7773Z" fill="black"/>
<path d="M117.928 13.3345H106.489C106.003 13.3345 105.609 13.7323 105.609 14.2232V25.7786C105.609 26.2695 106.003 26.6676 106.489 26.6676H117.928C118.414 26.6676 118.808 26.2695 118.808 25.7786V14.2232C118.808 13.7323 118.414 13.3345 117.928 13.3345Z" fill="black"/>
<path d="M104.723 0.000976562H93.2843C92.7983 0.000976562 92.4043 0.398835 92.4043 0.889908V12.4451C92.4043 12.936 92.7983 13.3341 93.2843 13.3341H104.723C105.209 13.3341 105.603 12.936 105.603 12.4451V0.889908C105.603 0.398835 105.209 0.000976562 104.723 0.000976562Z" fill="black"/>
<path d="M131.119 0.000976562H119.681C119.195 0.000976562 118.801 0.398835 118.801 0.889908V12.4451C118.801 12.936 119.195 13.3341 119.681 13.3341H131.119C131.605 13.3341 131.999 12.936 131.999 12.4451V0.889908C131.999 0.398835 131.605 0.000976562 131.119 0.000976562Z" fill="black"/>
<path d="M104.723 26.667H93.2843C92.7983 26.667 92.4043 27.0648 92.4043 27.5557V39.1112C92.4043 39.6021 92.7983 40.0001 93.2843 40.0001H104.723C105.209 40.0001 105.603 39.6021 105.603 39.1112V27.5557C105.603 27.0648 105.209 26.667 104.723 26.667Z" fill="black"/>
<path d="M131.119 26.667H119.681C119.195 26.667 118.801 27.0648 118.801 27.5557V39.1112C118.801 39.6021 119.195 40.0001 119.681 40.0001H131.119C131.605 40.0001 131.999 39.6021 131.999 39.1112V27.5557C131.999 27.0648 131.605 26.667 131.119 26.667Z" fill="black"/>
<path d="M84.9102 0.000976562H73.4718C72.9858 0.000976562 72.5918 0.398835 72.5918 0.889908V12.4451C72.5918 12.936 72.9858 13.3341 73.4718 13.3341H84.9102C85.3962 13.3341 85.7902 12.936 85.7902 12.4451V0.889908C85.7902 0.398835 85.3962 0.000976562 84.9102 0.000976562Z" fill="black"/>
<path d="M84.9102 26.667H73.4718C72.9858 26.667 72.5918 27.0648 72.5918 27.5557V39.1112C72.5918 39.6021 72.9858 40.0001 73.4718 40.0001H84.9102C85.3962 40.0001 85.7902 39.6021 85.7902 39.1112V27.5557C85.7902 27.0648 85.3962 26.667 84.9102 26.667Z" fill="black"/>
<path d="M72.5901 14.2118C72.5901 13.9761 72.4973 13.7501 72.3324 13.5834C72.1673 13.4167 71.9435 13.3231 71.7102 13.3231H59.3917V0.888932C59.3917 0.653038 59.2989 0.426968 59.134 0.26036C58.9689 0.0935732 58.7451 0 58.5118 0H47.0733C46.8398 0 46.616 0.0935732 46.4511 0.26036C46.286 0.426968 46.1934 0.653038 46.1934 0.888932V39.0904C46.1934 39.3261 46.286 39.5521 46.4511 39.7187C46.616 39.8855 46.8398 39.9791 47.0733 39.9791H58.5118C58.7451 39.9791 58.9689 39.8855 59.134 39.7187C59.2989 39.5521 59.3917 39.3261 59.3917 39.0904V26.6562H71.7102C71.9435 26.6562 72.1673 26.5624 72.3324 26.3958C72.4973 26.229 72.5901 26.003 72.5901 25.7673V14.2118Z" fill="black"/>
</g>
<defs>
<clipPath id="clip0_482_21635">
<rect width="132" height="40" fill="white"/>
</clipPath>
</defs>
</svg>
